<?xml version="1.0" encoding="UTF-8"?>
<svg version="1.1" xmlns="http://www.w3.org/2000/svg" width="373" height="428">
<path d="M0 0 C1.0307666 0.57596924 2.0615332 1.15193848 3.12353516 1.74536133 C3.69329071 2.06089462 4.26304626 2.37642792 4.85006714 2.70152283 C6.70935258 3.73461106 8.56098466 4.78062464 10.41259766 5.82739258 C11.71666783 6.55626778 13.02103382 7.28461393 14.32568359 8.01245117 C23.34711356 13.0600171 32.2919936 18.2368551 41.20141602 23.47949219 C48.40624855 27.71390602 55.67364898 31.82459492 62.97509766 35.88989258 C70.52015321 40.09296652 78.0257859 44.34358723 85.453125 48.7512207 C91.80477256 52.51763095 98.2003492 56.20591144 104.60009766 59.88989258 C113.05430666 64.75756011 121.49292277 69.65024532 129.91259766 74.57739258 C140.04168417 80.50321806 150.22138481 86.33742125 160.42382812 92.13574219 C167.01409551 95.8872948 173.55262909 99.70920797 180.03759766 103.63989258 C180.32740983 110.15045455 180.48127052 116.65446985 180.54418945 123.17114258 C180.58117439 125.38313279 180.64842138 127.5948437 180.74731445 129.80493164 C181.51353449 147.60049238 181.51353449 147.60049238 177.47695923 152.55569458 C173.47498833 155.85200532 168.95781814 157.86241963 164.16738892 159.76257324 C161.28074747 160.95165989 158.69398829 162.51319519 156.04150391 164.15161133 C154.22798752 165.21069444 152.41418294 166.26928422 150.60009766 167.32739258 C149.59914063 167.91133789 148.59818359 168.4952832 147.56689453 169.09692383 C138.97707674 174.10276929 130.36569077 179.07078747 121.75073242 184.03320312 C114.49950917 188.2125062 107.26352641 192.41702455 100.03759766 196.63989258 C78.11746309 209.44525892 56.09759018 222.07732766 34.03759766 234.63989258 C32.97250977 235.24671875 31.90742188 235.85354492 30.81005859 236.47875977 C21.38061223 241.84638147 11.94689249 247.21000254 2.41259766 252.38989258 C1.28595703 253.00348633 0.15931641 253.61708008 -1.00146484 254.24926758 C-3.83722465 255.581102 -5.86176494 256.33063961 -8.96240234 256.63989258 C-11.3046875 255.70629883 -11.3046875 255.70629883 -13.75146484 254.20239258 C-14.67950928 253.64455078 -15.60755371 253.08670898 -16.5637207 252.51196289 C-17.56153564 251.89417969 -18.55935059 251.27639648 -19.58740234 250.63989258 C-21.7458938 249.34024862 -23.90611761 248.04347841 -26.06787109 246.74926758 C-27.19499512 246.07186523 -28.32211914 245.39446289 -29.48339844 244.6965332 C-35.20970124 241.28690197 -41.06046387 238.10053518 -46.89990234 234.88989258 C-54.81389011 230.52018565 -62.6905077 226.11108131 -70.4597168 221.48876953 C-76.96499902 217.61992635 -83.52596249 213.85003451 -90.08740234 210.07739258 C-97.42717461 205.8519441 -104.76050716 201.61899511 -112.02490234 197.26489258 C-112.9348999 196.72046509 -112.9348999 196.72046509 -113.86328125 196.16503906 C-117.8317129 193.77058202 -117.8317129 193.77058202 -118.96240234 192.63989258 C-119.05544252 191.1663491 -119.07986499 189.68838667 -119.07592773 188.21191406 C-119.07581444 186.80056435 -119.07581444 186.80056435 -119.07569885 185.36070251 C-119.06795692 183.826343 -119.06795692 183.826343 -119.06005859 182.26098633 C-119.05864365 181.21918716 -119.0572287 180.177388 -119.05577087 179.10401917 C-119.05015314 175.76178164 -119.03759764 172.41961001 -119.02490234 169.07739258 C-119.01988963 166.81762792 -119.01532633 164.55786221 -119.01123047 162.2980957 C-119.00017795 156.74533867 -118.98342258 151.19262033 -118.96240234 145.63989258 C-105.40921582 153.02487194 -91.90741803 160.46479468 -78.58740234 168.26489258 C-65.10420485 176.1598446 -51.55920725 183.94261632 -37.96240234 191.63989258 C-37.3433905 191.99041687 -36.72437866 192.34094116 -36.08660889 192.7020874 C-32.35126056 194.81568991 -28.61167772 196.92152245 -24.86660767 199.01785278 C-23.13140896 199.99023194 -21.39879845 200.96722516 -19.66625977 201.94433594 C-18.61156494 202.532229 -17.55687012 203.12012207 -16.47021484 203.72583008 C-15.54869629 204.24193848 -14.62717773 204.75804687 -13.67773438 205.28979492 C-8.14814968 208.27144825 -8.14814968 208.27144825 -2.18359375 207.7121582 C-1.23661621 207.16237305 -0.28963867 206.61258789 0.68603516 206.04614258 C1.76103271 205.43520752 2.83603027 204.82427246 3.94360352 204.19482422 C5.10017995 203.51026086 6.2565048 202.82527228 7.41259766 202.13989258 C8.62325311 201.44208465 9.83494021 200.74606377 11.04760742 200.05175781 C14.13912287 198.27520708 17.21623298 196.47525907 20.28924561 194.66693115 C22.9089832 193.12801251 25.53800768 191.60519618 28.16650391 190.08129883 C32.07866352 187.80869807 35.98378404 185.52454012 39.88525391 183.23364258 C46.53204366 179.33906439 53.21991985 175.51731197 59.91259766 171.70239258 C73.31380249 164.06011311 86.68855699 156.37303098 100.03759766 148.63989258 C101.11154785 148.01775879 102.18549805 147.395625 103.29199219 146.75463867 C114.62519579 140.18291325 125.93244858 133.59148939 137.03759766 126.63989258 C124.93685877 119.51911719 112.80672908 112.46717219 100.53759766 105.63989258 C91.30825645 100.50362599 82.16522744 95.23776695 73.05712891 89.88989258 C65.93231338 85.71745159 58.75208376 81.65503761 51.53759766 77.63989258 C44.2564008 73.58659473 37.005422 69.49091366 29.81201172 65.28344727 C27.81223841 64.11406094 25.80902282 62.95053947 23.80224609 61.79321289 C18.87499003 58.94247824 14.04124497 56.01487022 9.28759766 52.88208008 C8.36108398 52.29442871 7.43457031 51.70677734 6.47998047 51.10131836 C4.74034255 49.99550934 3.02353109 48.85254884 1.33740234 47.66674805 C-1.1846196 46.09708716 -3.02822486 45.13779644 -5.96240234 44.63989258 C-10.41731377 45.91175624 -14.06268594 48.18184348 -17.96240234 50.63989258 C-19.77289275 51.67207134 -21.58534708 52.70081413 -23.39990234 53.72583008 C-25.25607205 54.8187896 -27.11016322 55.91528505 -28.96240234 57.01489258 C-31.06589204 58.25302259 -33.17008839 59.48995264 -35.27490234 60.72583008 C-36.91072266 61.68634277 -36.91072266 61.68634277 -38.57958984 62.66625977 C-44.34986966 66.03281158 -50.15679785 69.33481066 -55.96240234 72.63989258 C-64.65692096 77.59278606 -73.32738827 82.58368426 -81.96240234 87.63989258 C-90.55757678 92.67179138 -99.18559025 97.64366662 -107.83740234 102.57739258 C-116.83276778 107.70764131 -125.82273076 112.84682993 -134.79473877 118.01785278 C-136.48873174 118.99404857 -138.18332429 119.96920368 -139.87792969 120.94433594 C-140.89709473 121.532229 -141.91625977 122.12012207 -142.96630859 122.72583008 C-143.86164307 123.24193848 -144.75697754 123.75804688 -145.67944336 124.28979492 C-147.47428298 125.35122826 -149.22740489 126.48322761 -150.96240234 127.63989258 C-151.41228342 130.63034689 -151.41228342 130.63034689 -151.32316589 134.22036743 C-151.32701081 135.24586057 -151.32701081 135.24586057 -151.33093339 136.29207075 C-151.33589382 138.59395729 -151.31934202 140.89519489 -151.30297852 143.19702148 C-151.30213273 144.84261561 -151.30260644 146.48821086 -151.30430603 148.13380432 C-151.3051693 152.61091428 -151.28749011 157.08778475 -151.26658416 161.56483889 C-151.24787241 166.24002154 -151.24607127 170.91520926 -151.24250793 175.59042358 C-151.23317125 184.44794355 -151.20853557 193.30535287 -151.17845947 202.16282403 C-151.14496589 212.24488792 -151.12844215 222.32695699 -151.11337316 232.40906262 C-151.08198738 253.15273444 -151.02919542 273.89630655 -150.96240234 294.63989258 C-150.18293243 295.08497665 -149.40346252 295.53006073 -148.60037231 295.9886322 C-145.64029636 297.67902341 -142.68035202 299.36964466 -139.7204895 301.06040955 C-138.45218892 301.78484313 -137.1838396 302.50919138 -135.91543579 303.23344421 C-123.98300709 310.04694561 -112.07747527 316.90632733 -100.18017578 323.78100586 C-94.77569593 326.90313861 -89.36895516 330.02135139 -83.96240234 333.13989258 C-77.48473349 336.87626172 -71.00750251 340.61337605 -64.53271484 344.35473633 C-53.00225598 351.01569226 -41.46011856 357.65574054 -29.89990234 364.26489258 C-29.31235168 364.60100555 -28.72480103 364.93711853 -28.1194458 365.28341675 C-25.37972932 366.85034079 -22.63772779 368.41240544 -19.88769531 369.96118164 C-18.02599218 371.02954007 -16.18338774 372.1324422 -14.36914062 373.27954102 C-13.59683105 373.75681641 -12.82452148 374.2340918 -12.02880859 374.72583008 C-11.37984619 375.14654785 -10.73088379 375.56726563 -10.06225586 376.00073242 C-6.07851951 377.21331488 -2.73582812 375.02449897 0.81640625 373.25805664 C1.76338379 372.72921875 2.71036133 372.20038086 3.68603516 371.65551758 C4.76127441 371.05731201 5.83651367 370.45910645 6.94433594 369.84277344 C8.0888623 369.19832275 9.23338867 368.55387207 10.41259766 367.88989258 C11.62196489 367.21335318 12.83143922 366.5370052 14.04101562 365.86083984 C22.78708394 360.95943809 31.45666582 355.93142383 40.09985352 350.85083008 C47.34024817 346.60284421 54.64109146 342.47388394 61.97509766 338.38989258 C69.52157244 334.18596236 77.02809576 329.933699 84.45751953 325.52636719 C90.76815101 321.78525761 97.11859613 318.11494599 103.47509766 314.45239258 C104.58232178 313.81438721 105.6895459 313.17638184 106.83032227 312.51904297 C109.10096833 311.21099781 111.37172123 309.9031381 113.64257812 308.59545898 C119.10929751 305.44657201 124.57331246 302.293001 130.03759766 299.13989258 C131.0970459 298.52879639 132.15649414 297.9177002 133.24804688 297.28808594 C138.28232683 294.38428031 143.3160528 291.4795268 148.34780884 288.5713501 C150.12122373 287.54643855 151.89481412 286.52183135 153.66845703 285.49731445 C155.88755539 284.2153652 158.10632782 282.93285151 160.32470703 281.6496582 C163.22583968 279.97414765 166.13051722 278.30505835 169.03759766 276.63989258 C169.91915527 276.13232422 170.80071289 275.62475586 171.70898438 275.10180664 C172.5173877 274.64257812 173.32579102 274.18334961 174.15869141 273.71020508 C175.21527954 273.10716553 175.21527954 273.10716553 176.29321289 272.49194336 C178.03759766 271.63989258 178.03759766 271.63989258 180.03759766 271.63989258 C180.26623875 278.08043984 180.42357588 284.51993832 180.53198242 290.96362305 C180.57717914 293.15412496 180.63855204 295.3443563 180.71655273 297.53393555 C180.82604825 300.68712026 180.87682685 303.83671314 180.91650391 306.99145508 C180.96295547 307.96668121 181.00940704 308.94190735 181.05726624 309.94668579 C181.06218271 316.60417634 181.06218271 316.60417634 178.19065857 319.50689697 C175.87199756 321.07788237 173.53809544 322.38177824 171.03759766 323.63989258 C169.97790771 324.27604492 168.91821777 324.91219727 167.82641602 325.56762695 C166.85325439 326.11741211 165.88009277 326.66719727 164.87744141 327.23364258 C163.76691406 327.86399414 162.65638672 328.4943457 161.51220703 329.14379883 C160.93623779 329.46880371 160.36026855 329.79380859 159.7668457 330.12866211 C156.65378687 331.88561669 153.54718049 333.65392247 150.43994141 335.42114258 C149.81155365 335.77821289 149.18316589 336.1352832 148.53573608 336.50317383 C142.67627004 339.83650489 136.85340025 343.23100178 131.03759766 346.63989258 C122.44266946 351.67220832 113.81439127 356.6436442 105.16259766 361.57739258 C87.77941394 371.49162199 70.4372268 381.47498552 53.16259766 391.57739258 C40.90075163 398.74425481 28.58082512 405.80595663 16.22949219 412.81713867 C13.28866441 414.49651914 10.36231984 416.19820713 7.43994141 417.90942383 C5.8267867 418.84063267 4.21351548 419.77163969 2.60009766 420.70239258 C1.89127441 421.12617188 1.18245117 421.54995117 0.45214844 421.98657227 C-4.31083274 424.70457142 -4.31083274 424.70457142 -7.35791016 424.40209961 C-10.20798529 423.5680225 -12.49230442 422.4360544 -15.07568359 420.97192383 C-16.0635083 420.41585449 -17.05133301 419.85978516 -18.0690918 419.28686523 C-19.12700928 418.68148926 -20.18492676 418.07611328 -21.27490234 417.45239258 C-22.38502686 416.82381348 -23.49515137 416.19523437 -24.63891602 415.54760742 C-33.04176984 410.77538134 -41.39524822 405.91868205 -49.73168945 401.03149414 C-57.4037382 396.53573958 -65.11235421 392.10622333 -72.83740234 387.70239258 C-85.160054 380.67589078 -97.45378975 373.60046555 -109.73583984 366.50317383 C-112.99764242 364.61954208 -116.26102078 362.73866937 -119.52490234 360.85864258 C-130.94937591 354.2767462 -142.35693108 347.66791287 -153.73486328 341.00585938 C-159.34376849 337.72873055 -164.97113032 334.48656286 -170.61865234 331.27661133 C-171.26254913 330.9103212 -171.90644592 330.54403107 -172.56985474 330.16664124 C-175.72795611 328.37073098 -178.8881591 326.57868887 -182.05175781 324.79248047 C-183.75162842 323.82749634 -183.75162842 323.82749634 -185.48583984 322.84301758 C-186.49565918 322.27228516 -187.50547852 321.70155273 -188.54589844 321.11352539 C-190.96240234 319.63989258 -190.96240234 319.63989258 -192.96240234 317.63989258 C-193.1879034 315.0596571 -193.1879034 315.0596571 -193.15428162 311.72367859 C-193.1473356 310.46227712 -193.14038958 309.20087564 -193.13323307 307.90124989 C-193.12481109 307.21722619 -193.11638911 306.53320249 -193.10771191 305.8284508 C-193.08070773 303.6296039 -193.06535821 301.43094316 -193.05311489 299.23196697 C-193.03977053 296.86133178 -193.02563061 294.4907263 -193.00799733 292.12011868 C-192.94657965 283.7487789 -192.97362986 275.37831135 -193.00423539 267.00688803 C-193.06888957 248.48525598 -193.06425575 229.96372054 -193.03756046 211.44202137 C-193.0234445 200.83160244 -193.02678691 190.22168605 -193.06860352 179.61132812 C-193.10540778 170.25978204 -193.11081021 160.90883868 -193.07823175 151.55726737 C-193.06216113 146.63312845 -193.06163668 141.71012776 -193.09916878 136.78608131 C-193.13381212 132.18121198 -193.12649477 127.5783285 -193.08677292 122.97351837 C-193.0796335 121.28765623 -193.08784825 119.60164783 -193.11262703 117.91595268 C-193.28712925 105.18100014 -193.28712925 105.18100014 -189.98124599 101.33513451 C-187.68612867 99.77721447 -185.52943319 98.67236536 -182.96240234 97.63989258 C-182.05417725 97.09461914 -181.14595215 96.5493457 -180.21020508 95.98754883 C-179.06467163 95.35139648 -179.06467163 95.35139648 -177.89599609 94.70239258 C-176.56894653 93.96013428 -176.56894653 93.96013428 -175.21508789 93.20288086 C-174.28607666 92.68709473 -173.35706543 92.17130859 -172.39990234 91.63989258 C-164.27294391 87.08732432 -156.18812324 82.47241405 -148.14990234 77.76489258 C-136.54302187 70.97096702 -124.8984723 64.24399346 -113.24462891 57.53100586 C-108.89823094 55.02675127 -104.55329962 52.51995905 -100.20849609 50.01293945 C-96.95736756 48.13698743 -93.7059786 46.26148729 -90.45458984 44.38598633 C-86.14638583 41.90058356 -81.83917445 39.41347281 -77.53271484 36.92504883 C-68.64357732 31.78998637 -59.75207788 26.65921959 -50.84130859 21.56176758 C-49.9492421 21.05140457 -49.9492421 21.05140457 -49.03915405 20.5307312 C-46.06855624 18.83217551 -43.09616455 17.13687196 -40.12060547 15.44702148 C-34.62880107 12.32442792 -29.15912224 9.17589017 -23.73974609 5.92895508 C-22.78044189 5.36072021 -21.8211377 4.79248535 -20.83276367 4.20703125 C-19.05745366 3.15321228 -17.28972296 2.08647193 -15.53149414 1.00439453 C-14.74814697 0.54250732 -13.9647998 0.08062012 -13.15771484 -0.39526367 C-12.48756348 -0.80139893 -11.81741211 -1.20753418 -11.12695312 -1.62597656 C-7.05295444 -3.00771737 -3.78786343 -1.73909569 0 0 Z " fill="#7940E0" transform="translate(192.96240234375,3.360107421875)"/>
<path d="M0 0 C0.3821895 6.52680293 0.64367577 13.05070942 0.82397461 19.58618164 C0.89914949 21.80537654 1.0013359 24.02383451 1.1315918 26.24047852 C2.15194392 44.05862755 2.15194392 44.05862755 -1.32229614 48.80737305 C-4.7773632 51.85162907 -8.75527067 53.56602706 -13.01992798 55.2015686 C-15.9427347 56.38014223 -18.55166582 57.99544683 -21.23828125 59.6328125 C-23.26225307 60.79820941 -25.28701051 61.96224284 -27.3125 63.125 C-29.57944776 64.42965157 -31.84637424 65.73434013 -34.11328125 67.0390625 C-35.25490723 67.69551758 -36.3965332 68.35197266 -37.57275391 69.02832031 C-43.05155797 72.18025232 -48.52561113 75.34040797 -54 78.5 C-56.16664226 79.7500423 -58.33330897 81.00004224 -60.5 82.25 C-61.5725 82.86875 -62.645 83.4875 -63.75 84.125 C-68.625 86.9375 -68.625 86.9375 -73.5 89.75 C-74.57233887 90.36866943 -75.64467773 90.98733887 -76.74951172 91.62475586 C-78.91776264 92.8756448 -81.08605697 94.12645852 -83.25439453 95.37719727 C-88.64717915 98.48798335 -94.03922093 101.60004238 -99.4296875 104.71484375 C-113.46802901 112.82453656 -127.53132699 120.8896601 -141.6125946 128.92449951 C-145.96862319 131.41035723 -150.32256218 133.89985109 -154.67578125 136.390625 C-156.56958372 137.47391634 -158.46340893 138.5571679 -160.35723877 139.64041138 C-161.55733168 140.32698202 -162.757327 141.01372326 -163.95721436 141.70065308 C-166.66932848 143.25323038 -169.3832598 144.80216258 -172.10302734 146.34130859 C-173.95646769 147.40251487 -175.79699437 148.48681278 -177.61962891 149.60009766 C-178.40128418 150.06851074 -179.18293945 150.53692383 -179.98828125 151.01953125 C-180.64997314 151.42921143 -181.31166504 151.8388916 -181.9934082 152.26098633 C-184.74229335 153.27338143 -186.21566399 152.86247911 -189 152 C-190.88316732 151.10386972 -192.73183786 150.13348395 -194.55078125 149.11328125 C-195.62900146 148.51201416 -196.70722168 147.91074707 -197.81811523 147.29125977 C-198.98307592 146.63196599 -200.14786641 145.9723714 -201.3125 145.3125 C-202.52853012 144.62977578 -203.74476038 143.94740792 -204.96118164 143.26538086 C-213.65118779 138.3805652 -222.27687345 133.38665869 -230.87304688 128.33862305 C-237.89921732 124.21333953 -244.96275508 120.15736544 -252.04547119 116.13018799 C-261.82224344 110.56859557 -271.57011865 104.95958034 -281.2605896 99.24871826 C-282.45176259 98.54718808 -283.6438268 97.84716871 -284.83682251 97.14874268 C-286.48900873 96.18064858 -288.13717791 95.20570867 -289.78515625 94.23046875 C-291.19099976 93.40131958 -291.19099976 93.40131958 -292.62524414 92.55541992 C-294.80705483 91.12637542 -296.3634209 90.01223633 -298 88 C-298.36076355 85.89289856 -298.36076355 85.89289856 -298.34057617 83.43676758 C-298.34034958 82.51603958 -298.34012299 81.59531158 -298.33988953 80.64668274 C-298.32440567 79.65597275 -298.30892181 78.66526276 -298.29296875 77.64453125 C-298.28872391 76.62775803 -298.28447906 75.6109848 -298.28010559 74.56340027 C-298.26329997 71.31283188 -298.22564382 68.0628813 -298.1875 64.8125 C-298.17245562 62.61003499 -298.15876679 60.40756027 -298.14648438 58.20507812 C-298.11339036 52.80317428 -298.06317223 47.40163128 -298 42 C-291.32527546 45.27513675 -284.73839921 48.59023436 -278.375 52.4375 C-276.91343182 53.3084194 -275.45114263 54.17812951 -273.98828125 55.046875 C-273.19760254 55.51673828 -272.40692383 55.98660156 -271.59228516 56.47070312 C-266.60395818 59.41352476 -261.58147994 62.29737798 -256.5625 65.1875 C-255.45487305 65.82558594 -254.34724609 66.46367187 -253.20605469 67.12109375 C-250.93287691 68.43050688 -248.65960146 69.73975047 -246.38623047 71.04882812 C-242.03090404 73.5584005 -237.67876218 76.0734644 -233.32666016 78.58862305 C-230.12419998 80.43796199 -226.91973157 82.28377812 -223.71484375 84.12890625 C-219.56143425 86.52022574 -215.41340281 88.92043142 -211.27044678 91.32978821 C-208.70202971 92.82172043 -206.13024558 94.30778153 -203.55780029 95.79275513 C-202.32217029 96.50774953 -201.08796671 97.22521539 -199.85528564 97.94528198 C-198.14038267 98.94659624 -196.4199049 99.93834415 -194.69921875 100.9296875 C-193.71783936 101.49929199 -192.73645996 102.06889648 -191.7253418 102.65576172 C-188.99869571 104.00064332 -187.03213963 104.8109796 -184 105 C-181.42827649 104.0912995 -181.42827649 104.0912995 -178.88671875 102.52734375 C-177.40498169 101.68357178 -177.40498169 101.68357178 -175.89331055 100.82275391 C-174.83539307 100.20062012 -173.77747559 99.57848633 -172.6875 98.9375 C-171.02231323 97.98109619 -171.02231323 97.98109619 -169.32348633 97.00537109 C-165.87324136 95.01851852 -162.43582522 93.0116618 -159 91 C-157.00026741 89.83677975 -155.00027948 88.67399832 -153 87.51171875 C-149.0701506 85.22433726 -145.14549186 82.92829094 -141.22265625 80.62890625 C-134.55023946 76.72645332 -127.84019863 72.8906442 -121.125 69.0625 C-108.79951217 62.03438099 -96.50277644 54.95759399 -84.21777344 47.85888672 C-78.81329355 44.73675395 -73.40652588 41.61858796 -68 38.5 C-65.8333225 37.25001878 -63.66665583 36.00001879 -61.5 34.75 C-57.16666667 32.25 -52.83333333 29.75 -48.5 27.25 C-47.42556641 26.63012207 -46.35113281 26.01024414 -45.24414062 25.37158203 C-43.09704864 24.13289998 -40.94991386 22.8942921 -38.80273438 21.65576172 C-33.70411191 18.7146665 -28.60594704 15.77278587 -23.50927734 12.82830811 C-21.08952335 11.43041399 -18.66952737 10.03293911 -16.24951172 8.63549805 C-14.53198948 7.64347676 -12.81481948 6.65084571 -11.09765625 5.65820312 C-9.54884766 4.76391602 -9.54884766 4.76391602 -7.96875 3.8515625 C-7.05544922 3.32385254 -6.14214844 2.79614258 -5.20117188 2.25244141 C-1.24249513 0 -1.24249513 0 0 0 Z " fill="#6036D7" transform="translate(372,191)"/>
<path d="M0 0 C0.43368505 6.36545764 0.72966523 12.72709134 0.93383789 19.10400391 C1.0189653 21.26821067 1.13473107 23.43144953 1.2824707 25.59228516 C2.44183014 42.99471157 2.44183014 42.99471157 -1.53915405 47.89431763 C-5.54443666 51.18976138 -10.07391034 53.20348362 -14.8621521 55.11462402 C-17.74914853 56.31025505 -20.34076051 57.87225962 -22.99609375 59.51171875 C-24.80961014 60.57080186 -26.62341471 61.62939164 -28.4375 62.6875 C-29.43845703 63.27144531 -30.43941406 63.85539062 -31.47070312 64.45703125 C-40.06052092 69.46287671 -48.67190689 74.43089489 -57.28686523 79.39331055 C-64.53808848 83.57261362 -71.77407124 87.77713197 -79 92 C-100.92013457 104.80536635 -122.94000748 117.43743508 -145 130 C-146.06508789 130.60682617 -147.13017578 131.21365234 -148.22753906 131.83886719 C-157.65698543 137.20648889 -167.09070517 142.57010996 -176.625 147.75 C-177.75164062 148.36359375 -178.87828125 148.9771875 -180.0390625 149.609375 C-182.87482231 150.94120942 -184.8993626 151.69074704 -188 152 C-190.34228516 151.06640625 -190.34228516 151.06640625 -192.7890625 149.5625 C-193.71710693 149.0046582 -194.64515137 148.44681641 -195.60131836 147.87207031 C-196.5991333 147.25428711 -197.59694824 146.63650391 -198.625 146 C-200.78349146 144.70035604 -202.94371527 143.40358583 -205.10546875 142.109375 C-206.79615479 141.09327148 -206.79615479 141.09327148 -208.52099609 140.05664062 C-214.24729889 136.64700939 -220.09806153 133.4606426 -225.9375 130.25 C-233.85148776 125.88029307 -241.72810536 121.47118873 -249.49731445 116.84887695 C-256.00259667 112.98003377 -262.56356014 109.21014194 -269.125 105.4375 C-276.46477227 101.21205152 -283.79810482 96.97910253 -291.0625 92.625 C-291.66916504 92.26204834 -292.27583008 91.89909668 -292.90087891 91.52514648 C-296.86931056 89.13068944 -296.86931056 89.13068944 -298 88 C-298.09304018 86.52645652 -298.11746265 85.04849409 -298.11352539 83.57202148 C-298.11344986 82.63112167 -298.11337433 81.69022186 -298.11329651 80.72080994 C-298.10813522 79.69790359 -298.10297394 78.67499725 -298.09765625 77.62109375 C-298.0962413 76.57929459 -298.09482635 75.53749542 -298.09336853 74.46412659 C-298.0877508 71.12188906 -298.0751953 67.77971743 -298.0625 64.4375 C-298.05748728 62.17773534 -298.05292398 59.91796963 -298.04882812 57.65820312 C-298.03777561 52.10544609 -298.02102024 46.55272775 -298 41 C-284.44681347 48.38497936 -270.94501569 55.8249021 -257.625 63.625 C-244.1418025 71.51995203 -230.59680491 79.30272374 -217 87 C-216.38098816 87.35052429 -215.76197632 87.70104858 -215.12420654 88.06219482 C-211.38885821 90.17579734 -207.64927538 92.28162988 -203.90420532 94.37796021 C-202.16900661 95.35033936 -200.43639611 96.32733259 -198.70385742 97.30444336 C-197.6491626 97.89233643 -196.59446777 98.48022949 -195.5078125 99.0859375 C-194.58629395 99.6020459 -193.66477539 100.1181543 -192.71533203 100.64990234 C-187.18574733 103.63155567 -187.18574733 103.63155567 -181.22119141 103.07226562 C-180.27421387 102.52248047 -179.32723633 101.97269531 -178.3515625 101.40625 C-177.27656494 100.79531494 -176.20156738 100.18437988 -175.09399414 99.55493164 C-173.93741771 98.87036828 -172.78109286 98.18537971 -171.625 97.5 C-170.41434454 96.80219207 -169.20265745 96.10617119 -167.98999023 95.41186523 C-164.89847479 93.6353145 -161.82136468 91.8353665 -158.74835205 90.02703857 C-156.12861446 88.48811993 -153.49958998 86.9653036 -150.87109375 85.44140625 C-146.95893413 83.1688055 -143.05381362 80.88464754 -139.15234375 78.59375 C-132.50555399 74.69917181 -125.81767781 70.87741939 -119.125 67.0625 C-101.44952049 56.98273808 -83.82047832 46.82436591 -66.25 36.5625 C-63.3432949 34.86668844 -60.43640123 33.17120123 -57.52929688 31.47607422 C-55.97253636 30.56756321 -54.41640552 29.657971 -52.86132812 28.74658203 C-45.87820571 24.65641642 -38.82411539 20.90114923 -31.55224609 17.36547852 C-22.40889866 12.8312144 -13.72467965 7.44990371 -4.99267578 2.17993164 C-1.31119388 0 -1.31119388 0 0 0 Z " fill="#6036D7" transform="translate(372,108)"/>
</svg>
