<?xml version="1.0" encoding="UTF-8"?>
<svg version="1.1" xmlns="http://www.w3.org/2000/svg" width="128" height="128">
<path d="M0 0 C5.11923531 2.92645497 8.28501989 6.66053847 10.625 12.0625 C11.32310232 15.15945057 11.52354362 17.86662394 11.625 21.0625 C12.56601563 21.01609375 13.50703125 20.9696875 14.4765625 20.921875 C25.9209347 20.59015407 25.9209347 20.59015407 29.3125 22.75 C34.73673518 28.17423518 35.30642665 33.22162129 36.01171875 40.5859375 C36.17182182 42.11524399 36.17182182 42.11524399 36.3351593 43.67544556 C36.55832385 45.82829439 36.77565746 47.98175459 36.98754883 50.13574219 C37.31077762 53.41999928 37.65080803 56.70216461 37.99414062 59.984375 C38.20931841 62.08062828 38.4235426 64.17697972 38.63671875 66.2734375 C38.73667648 67.24969086 38.83663422 68.22594421 38.93962097 69.23178101 C39.90618776 79.11232521 40.66639528 88.23050723 34.73828125 96.78515625 C29.36161496 103.15645889 24.04065225 107.38305426 15.57080078 108.44567871 C12.03236056 108.60599597 8.51471393 108.64313602 4.97265625 108.62890625 C3.67734482 108.63510483 2.38203339 108.64130341 1.04747009 108.64768982 C-1.68167044 108.65803918 -4.41028781 108.65361298 -7.1394043 108.63891602 C-10.61052018 108.62173881 -14.07997881 108.64523545 -17.55091 108.68040562 C-20.89731418 108.70784062 -24.24333284 108.69763308 -27.58984375 108.69140625 C-28.82242416 108.70466446 -30.05500458 108.71792267 -31.32493591 108.73158264 C-40.99445365 108.62812955 -47.88442311 106.23690192 -55.25 99.9375 C-60.19520388 94.44152697 -62.3828334 88.60565887 -62.36645508 81.19750977 C-62.28225921 79.75731561 -62.18686784 78.31774517 -62.08203125 76.87890625 C-62.03138016 76.09811707 -61.98072906 75.31732788 -61.92854309 74.51287842 C-61.37821926 66.4033638 -60.65494377 58.30990697 -59.81030273 50.22607422 C-59.64297237 48.59629293 -59.48332693 46.96570693 -59.33081055 45.33447266 C-59.1053055 42.92416418 -58.85793997 40.51699042 -58.60546875 38.109375 C-58.54175583 37.38747986 -58.47804291 36.66558472 -58.41239929 35.92181396 C-57.76096854 30.11648315 -55.58112697 26.39064727 -51.609375 22.19921875 C-48.34228173 20.53711361 -45.1957856 20.74337369 -41.625 20.875 C-40.92761719 20.88853516 -40.23023437 20.90207031 -39.51171875 20.91601562 C-37.79914459 20.9512055 -36.08697059 21.00500845 -34.375 21.0625 C-34.45234375 19.48855469 -34.45234375 19.48855469 -34.53125 17.8828125 C-34.29693772 12.15387731 -31.91698018 8.46946903 -28.375 4.0625 C-20.2142786 -2.6843111 -9.80992145 -4.33184695 0 0 Z M-23.25 14.5625 C-24.64857645 17.213537 -24.64857645 17.213537 -24.375 21.0625 C-15.795 21.0625 -7.215 21.0625 1.625 21.0625 C0.61667332 15.01253991 -0.29192948 12.37480289 -5.125 8.75 C-12.76119204 6.4167191 -18.42820548 8.13344064 -23.25 14.5625 Z M-31.375 40.0625 C-33.725 42.0125 -33.725 42.0125 -33.875 45.5625 C-33.70797764 51.29345468 -30.92899155 55.70792509 -27.375 60.0625 C-21.77815664 64.67910525 -16.35878168 66.51050598 -9.13671875 66.39453125 C-3.24148599 65.68576918 1.68629986 63.34332369 5.55078125 58.796875 C9.56145384 52.89225756 9.56145384 52.89225756 10.8125 46.0625 C10.82667969 45.36125 10.84085938 44.66 10.85546875 43.9375 C10.79012323 41.81725062 10.79012323 41.81725062 8.625 40.0625 C6.02219432 40.38291397 6.02219432 40.38291397 3.625 41.0625 C3.38716797 42.05830078 3.38716797 42.05830078 3.14453125 43.07421875 C1.6626942 48.68227611 0.37812617 52.37882722 -4.375 56.0625 C-9.41419178 57.74223059 -13.73377998 57.61989548 -18.6875 55.9375 C-23.79599983 52.37343035 -24.88018503 46.81178833 -26.375 41.0625 C-28.77219432 40.38291397 -28.77219432 40.38291397 -31.375 40.0625 Z " fill="#5657C3" transform="translate(75.375,10.9375)"/>
<path d="M0 0 C0.33 0 0.66 0 1 0 C1 21.78 1 43.56 1 66 C-2.71938267 62.28061733 -4.15562556 59.10230977 -5 54 C-4.98252193 51.25488296 -4.89294713 48.58828141 -4.70703125 45.85546875 C-4.65833389 45.07160797 -4.60963654 44.28774719 -4.5594635 43.48013306 C-3.96800878 34.58164625 -2.96953931 25.73114771 -1.9375 16.875 C-1.74887577 15.2227102 -1.560723 13.57036651 -1.37304688 11.91796875 C-0.92076042 7.94467437 -0.46222894 3.97214948 0 0 Z " fill="#A8AAF6" transform="translate(18,42)"/>
<path d="M0 0 C2.42248355 3.63372533 2.17281207 6.12080842 1.9765625 10.29296875 C1.95153656 10.99899734 1.92651062 11.70502594 1.90072632 12.43244934 C1.81863741 14.68462949 1.72200748 16.93591791 1.625 19.1875 C1.56674891 20.71545852 1.50944586 22.24345349 1.453125 23.77148438 C1.3130757 27.51483461 1.15998394 31.25745088 1 35 C-2.45591103 29.81613346 -2.02800621 25.44313992 -1.625 19.375 C-1.57609619 18.57336426 -1.52719238 17.77172852 -1.47680664 16.94580078 C-1.11881148 11.28088535 -0.63687864 5.64092514 0 0 Z " fill="#BABBEF" transform="translate(15,68)"/>
</svg>
